<svg xmlns="http://www.w3.org/2000/svg" width="79" height="79" fill="none"><g filter="url(#a)"><circle cx="39.5" cy="31.5" r="20.5" fill="#272727"/><g filter="url(#b)"><path fill="#fff" fill-rule="evenodd" d="M50.833 23.387c.334.318.521.749.521 1.198 0 .45-.188.88-.521 1.198L37.486 38.484a1.907 1.907 0 0 1-.617.392 1.983 1.983 0 0 1-1.454 0c-.23-.09-.44-.224-.616-.392l-6.631-6.31a1.695 1.695 0 0 1-.4-.55 1.624 1.624 0 0 1-.011-1.31c.09-.208.221-.397.389-.556a1.79 1.79 0 0 1 .584-.37 1.862 1.862 0 0 1 1.378.011c.217.089.413.218.578.38l5.456 5.192 12.171-11.584c.166-.158.362-.282.578-.368a1.86 1.86 0 0 1 1.364 0c.216.086.412.21.578.368Z" clip-rule="evenodd"/></g></g><defs><filter id="a" width="79" height="79" x="0" y="0" color-interpolation-filters="sRGB" filterUnits="userSpaceOnUse"><feFlood flood-opacity="0" result="BackgroundImageFix"/><feColorMatrix in="SourceAlpha" result="hardAlpha" values="0 0 0 0 0 0 0 0 0 0 0 0 0 0 0 0 0 0 127 0"/><feOffset dy="8"/><feGaussianBlur stdDeviation="9.5"/><feComposite in2="hardAlpha" operator="out"/><feColorMatrix values="0 0 0 0 0 0 0 0 0 0 0 0 0 0 0 0 0 0 0.25 0"/><feBlend in2="BackgroundImageFix" result="effect1_dropShadow_305_11"/><feBlend in="SourceGraphic" in2="effect1_dropShadow_305_11" result="shape"/></filter><filter id="b" width="63.73" height="56.123" x="7.624" y="6.89" color-interpolation-filters="sRGB" filterUnits="userSpaceOnUse"><feFlood flood-opacity="0" result="BackgroundImageFix"/><feColorMatrix in="SourceAlpha" result="hardAlpha" values="0 0 0 0 0 0 0 0 0 0 0 0 0 0 0 0 0 0 127 0"/><feOffset dy="4"/><feGaussianBlur stdDeviation="10"/><feComposite in2="hardAlpha" operator="out"/><feColorMatrix values="0 0 0 0 1 0 0 0 0 1 0 0 0 0 1 0 0 0 0.25 0"/><feBlend in2="BackgroundImageFix" result="effect1_dropShadow_305_11"/><feBlend in="SourceGraphic" in2="effect1_dropShadow_305_11" result="shape"/></filter></defs></svg>