<svg xmlns="http://www.w3.org/2000/svg" width="19" height="20" fill="none"><path fill="#9C9C9C" d="M4.253 17.5H.313V5.816h3.94V17.5ZM2.281 4.223C1.021 4.223 0 3.262 0 2.1 0 1.544.24 1.01.668.616A2.384 2.384 0 0 1 2.281 0c.605 0 1.186.222 1.613.616.428.394.669.928.669 1.485 0 1.16-1.023 2.122-2.282 2.122ZM18.996 17.5h-3.93v-5.688c0-1.355-.03-3.093-2.049-3.093-2.048 0-2.362 1.472-2.362 2.996V17.5H6.72V5.816h3.778V7.41h.056c.525-.918 1.81-1.887 3.726-1.887 3.987 0 4.72 2.418 4.72 5.559V17.5h-.004Z"/></svg>