<svg xmlns="http://www.w3.org/2000/svg" width="24" height="24" fill="none"><path fill="#9C9C9C" d="M22.212 5.656a8.384 8.384 0 0 1-2.401.658A4.195 4.195 0 0 0 21.649 4c-.82.488-1.719.83-2.655 1.015a4.182 4.182 0 0 0-7.126 3.814 11.874 11.874 0 0 1-8.621-4.37 4.184 4.184 0 0 0 1.294 5.584 4.169 4.169 0 0 1-1.894-.523v.05a4.185 4.185 0 0 0 3.355 4.103 4.204 4.204 0 0 1-1.89.072A4.185 4.185 0 0 0 8.02 16.65a8.393 8.393 0 0 1-6.192 1.732 11.83 11.83 0 0 0 6.41 1.88c7.694 0 11.9-6.373 11.9-11.9 0-.18-.004-.362-.012-.541a8.501 8.501 0 0 0 2.086-2.165Z"/></svg>