<svg xmlns="http://www.w3.org/2000/svg" width="28" height="21" fill="none"><path fill="#fff" fill-rule="evenodd" d="M27.385.647c.394.414.615.975.615 1.56 0 .586-.221 1.147-.615 1.56L11.636 20.31a2.237 2.237 0 0 1-.727.51 2.148 2.148 0 0 1-1.716 0 2.238 2.238 0 0 1-.727-.51L.641 12.093c-.2-.204-.36-.447-.47-.717A2.303 2.303 0 0 1 .156 9.67c.106-.27.262-.517.46-.724.197-.208.431-.372.69-.483a2.013 2.013 0 0 1 1.624.015c.257.116.489.284.682.495l6.438 6.762L24.412.647c.196-.205.427-.368.682-.479a2.014 2.014 0 0 1 1.609 0c.255.111.487.274.682.479Z" clip-rule="evenodd"/></svg>