<svg xmlns="http://www.w3.org/2000/svg" width="19" height="20" fill="none"><path fill="#9C9C9C" d="M14.609 12.13c-.136-.093-.521-.637-1.588-3.32a7.802 7.802 0 0 0-.188-.437l-.217-.554-1.87-4.751h-3.74l1.87 4.751 1.87 4.755 1.727 4.39c.011.03.031.055.057.073a.15.15 0 0 0 .172 0 .162.162 0 0 0 .057-.074l1.879-4.735a.087.087 0 0 0-.03-.099Zm-7.007 0c-.135-.093-.52-.637-1.588-3.32a7.673 7.673 0 0 0-.187-.437L5.61 7.82 3.741 3.068H0l1.87 4.751 1.87 4.755 1.726 4.39c.012.03.032.055.058.073a.15.15 0 0 0 .172 0 .162.162 0 0 0 .057-.074l1.88-4.735a.085.085 0 0 0 .001-.055.08.08 0 0 0-.032-.044ZM19 5.312c0 .312-.058.62-.172.91-.113.287-.28.55-.489.77-.21.22-.458.396-.732.515a2.16 2.16 0 0 1-1.728 0 2.253 2.253 0 0 1-.733-.515 2.387 2.387 0 0 1-.49-.77 2.486 2.486 0 0 1 .001-1.82c.114-.288.28-.55.49-.77.21-.221.458-.396.732-.516.274-.119.568-.18.864-.18.599 0 1.173.25 1.596.696A2.44 2.44 0 0 1 19 5.313Z"/></svg>